<?xml version="1.0" encoding="utf-8"?>
<!-- Generator: Adobe Illustrator 23.0.0, SVG Export Plug-In . SVG Version: 6.00 Build 0)  -->
<svg version="1.1" id="图层_1" xmlns="http://www.w3.org/2000/svg" xmlns:xlink="http://www.w3.org/1999/xlink" x="0px" y="0px"
	 viewBox="0 0 283.46 283.46" style="enable-background:new 0 0 283.46 283.46;" xml:space="preserve">
<style type="text/css">
	.st0{fill:url(#SVGID_1_);}
	.st1{fill:url(#SVGID_2_);}
	.st2{fill:url(#SVGID_3_);}
	.st3{fill:url(#SVGID_4_);}
	.st4{fill:#FFFFFF;}
	.st5{fill:url(#SVGID_5_);}
</style>
<g>
	<linearGradient id="SVGID_1_" gradientUnits="userSpaceOnUse" x1="87.0977" y1="199.8278" x2="127.5194" y2="199.8278">
		<stop  offset="0" style="stop-color:#1874FF"/>
		<stop  offset="0.1587" style="stop-color:#2386FD"/>
		<stop  offset="0.5207" style="stop-color:#3AABF8"/>
		<stop  offset="0.814" style="stop-color:#48C2F5"/>
		<stop  offset="1" style="stop-color:#4DCAF4"/>
	</linearGradient>
	<path class="st0" d="M99.58,165.37c0,0-2.75,44.1,25.41,62.09c7.66,4.89-4.56,8.87-4.56,8.87l-33.33-10V184.3l4-20.98L99.58,165.37
		z"/>
	<linearGradient id="SVGID_2_" gradientUnits="userSpaceOnUse" x1="64.038" y1="141.6769" x2="218.0819" y2="141.6769">
		<stop  offset="0" style="stop-color:#5092F3"/>
		<stop  offset="1" style="stop-color:#55D3FF"/>
	</linearGradient>
	<path class="st1" d="M216.32,210.66c-1.75,7.76-4.8,15.21-9.23,21.81c-15.49,23.1-46.12,32.93-73.63,28.83
		c-19.53-2.91-38.28-12.22-51.39-26.99c-39.97-45.02-5.23-100.3,24.7-139.32c14.79-19.28,24.08-41.92,16.5-62.67
		c-0.94-2.58-5.45-11.16-8.89-11.16c27.15-1.25,36.42,64.71,30.55,69.52c-7.06,5.79-13.34,11.99-18.87,18.3
		c-5.98,6.8-11.07,13.73-15.31,20.43c-3.44,5.45-6.33,10.73-8.66,15.67c-0.99,2.08-1.88,4.11-2.66,6.05
		c-4.68,11.51-5.94,20.29-4,23.25c0.3,0.46,0.6,0.91,0.9,1.36c0.34,0.51-1.04,4.53-1.15,5.33c-0.22,1.5-0.35,3.01-0.38,4.52
		c-0.08,3.43,0.31,6.87,1.12,10.21c4.9,20.16,24.92,32.87,44.29,36.32c9.83,1.75,20.08,1.28,29.66-1.56
		c4.65-1.38,9.13-3.29,13.36-5.65c4.04-2.26,7.84-4.94,11.27-8.03c4.4-3.96,8.27-8.52,11.35-13.58c0.97-1.59,1.86-3.22,2.66-4.9
		c3.97-8.31,5.13-18.29,1.54-26.77c-4.34-10.26-14.52-16.6-24.1-22.27c0.66-1.04,1.31-2.09,1.97-3.13
		c9.07,2.12,16.85,8.42,21.86,16.28c5,7.86,7.41,17.16,8.1,26.45C218.41,196.19,217.91,203.56,216.32,210.66z"/>
	<linearGradient id="SVGID_3_" gradientUnits="userSpaceOnUse" x1="75.1295" y1="203.701" x2="219.4266" y2="203.701">
		<stop  offset="0" style="stop-color:#367EDC"/>
		<stop  offset="1" style="stop-color:#55D3FF"/>
	</linearGradient>
	<path class="st2" d="M215.67,215.31c-1.84,5.32-4.3,10.44-7.32,15.21c-0.16,0.26-0.32,0.52-0.49,0.78
		c-1.43,2.2-2.97,4.32-4.62,6.34c-0.21,0.26-0.42,0.51-0.64,0.76c-0.16,0.19-0.32,0.38-0.49,0.57c-0.13,0.14-0.26,0.28-0.39,0.42
		c-11.78,13.12-27.38,19-39.01,21.64c-11.82,2.05-24.12,1.62-35.86-1.03c-1.03-0.23-2.05-0.48-3.06-0.75
		c-4.93-1.28-9.74-2.96-14.36-5.02c-2.9-1.29-5.68-2.74-8.32-4.32c-9.66-5.81-17.38-13.53-21.82-22.84c0-0.01,0-0.02-0.01-0.03
		c-5.58-11.72-5.97-25.95,1.48-42.05c4.85-10.47,9.75-20.14,14.66-28.86c2.24-3.98,4.46-7.66,6.66-11.05
		c-0.99,2.08-1.88,4.11-2.66,6.05c-4.68,11.51-5.94,20.29-4,23.25c0.3,0.46,0.6,0.91,0.9,1.36c-0.69,2.4-1.18,4.9-1.41,7.54
		c-0.03,0.33-0.05,0.66-0.06,0.99c-0.05,0.85-0.08,1.7-0.08,2.53c0,0.48,0.01,0.95,0.03,1.42c0,0.09,0,0.17,0.01,0.26
		c0.01,0.43,0.04,0.85,0.07,1.27c0.01,0.04,0.01,0.08,0.01,0.12c0.04,0.45,0.08,0.9,0.14,1.34c0.12,1.12,0.3,2.22,0.52,3.3
		c0.08,0.39,0.17,0.78,0.26,1.17c0.23,0.95,0.49,1.88,0.79,2.8c0.15,0.47,0.32,0.94,0.49,1.4c0.17,0.47,0.35,0.93,0.54,1.38
		c0.16,0.39,0.33,0.78,0.5,1.16c0.03,0.07,0.06,0.13,0.09,0.19c0.2,0.43,0.4,0.85,0.61,1.27c0.46,0.9,0.95,1.79,1.47,2.65
		c0.25,0.41,0.5,0.81,0.76,1.21c0.28,0.44,0.57,0.87,0.87,1.29c0.55,0.78,1.12,1.54,1.72,2.28c0.28,0.35,0.57,0.7,0.86,1.04
		c0.03,0.03,0.06,0.06,0.08,0.09c0.32,0.38,0.65,0.75,0.98,1.11c2.99,3.28,6.46,6.18,10.22,8.71c0.41,0.28,0.83,0.55,1.26,0.82
		c0.03,0.02,0.06,0.05,0.1,0.07c0.39,0.25,0.78,0.49,1.18,0.73c1.74,1.06,3.53,2.04,5.35,2.95c0.43,0.21,0.87,0.42,1.31,0.63
		c0.41,0.19,0.82,0.38,1.23,0.56c0.04,0.02,0.09,0.04,0.14,0.06c0.45,0.21,0.91,0.41,1.37,0.6c0.92,0.4,1.85,0.77,2.78,1.12
		c6.3,2.39,11.62,3.6,16.92,3.46c8.27,0.51,16.78,0.73,24.5-2.27c8.6-3.34,16.8-8.97,23.45-15.33c2.99-2.86,6.31-6.46,8.71-9.83
		c2.35-3.3,3.85-6.11,5.34-9.84c5.37-13.45-1.48-31.05-15.47-35.79c-11.71-3.96-26,2.56-29.76,14.56c-1.27,4.05-1.46,8.68-4.3,11.83
		c-2.17,2.4-5.49,3.44-8.72,3.71c-2.59,0.21-5.46-0.11-7.3-1.95c-2.07-2.09-2.16-5.39-1.87-8.32c0.73-7.29,3.1-14.54,7.59-20.33
		c4.58-5.93,11.21-10.09,18.33-12.42c6.42-2.1,13.4-2.77,19.96-1.2c0.22,0.05,0.43,0.1,0.65,0.16c0.98,0.26,1.95,0.57,2.9,0.92
		c5.67,2.1,10.7,5.82,14.78,10.32c6.82,7.52,11.08,17.22,12.57,27.27C220.29,194.94,219.07,205.46,215.67,215.31z"/>
	<linearGradient id="SVGID_4_" gradientUnits="userSpaceOnUse" x1="131.947" y1="260.1618" x2="131.947" y2="21.1612">
		<stop  offset="0" style="stop-color:#38C8DC"/>
		<stop  offset="0.1165" style="stop-color:#33C9E0"/>
		<stop  offset="0.6194" style="stop-color:#22CEEE"/>
		<stop  offset="0.9949" style="stop-color:#1CD0F3"/>
	</linearGradient>
	<path class="st3" d="M191.48,121.92c-4.6-0.85-9.68-2.76-13.76-3.68c-5.38-1.21-10.97-1.74-16.48-1.41
		c-10.64,0.65-21.37,3.75-30.71,8.89c-13.33,7.34-23.59,19.55-28.97,33.75c-0.11,0.29-0.22,0.58-0.32,0.87
		c-6.32,17.4-7.76,36.82-3.17,54.8c4.01,15.69,13.46,29.54,24.73,40.96c1.18,1.19,2.63,3.1,4.21,3.8c0.22,0.11,0.88,0.25-0.32,0.24
		c-8.56-0.09-17.55,0.34-25.96-1.55c-12.02-2.69-20.09-12.62-24.03-23.84c-3.03-8.64-4.06-18.01-4.45-27.11
		c-0.5-11.89,1.23-28.12,7.38-43.64c6.32-15.95,16.13-29.7,26.12-43.57c10.63-14.75,19.16-29.88,23.01-47.77
		c2.21-10.24,3.18-21.28,0.55-31.53c-2.07-8.07-6.76-15.72-13.91-19.99c1.23,0.74,4.09,0.38,5.64,0.98
		c6.04,2.36,9.82,7.86,13.41,12.96c9.86,13.99,17.12,29.57,26.3,43.99c4.74,7.45,9.72,14.74,14.94,21.85
		c2.67,3.64,5.39,7.23,8.18,10.78c2.21,2.81,6.93,6.83,7.82,10.12C191.64,121.87,191.56,121.94,191.48,121.92z"/>
	<path class="st4" d="M170.99,178.49C170.93,178.69,170.98,178.55,170.99,178.49L170.99,178.49z"/>
	<g>
		<linearGradient id="SVGID_5_" gradientUnits="userSpaceOnUse" x1="169.3536" y1="216.7509" x2="194.3438" y2="173.4667">
			<stop  offset="0" style="stop-color:#53A2D9"/>
			<stop  offset="0.2257" style="stop-color:#53AADA"/>
			<stop  offset="0.5661" style="stop-color:#53BEDC"/>
			<stop  offset="0.9772" style="stop-color:#53E0E0"/>
			<stop  offset="1" style="stop-color:#53E2E0"/>
		</linearGradient>
		<path class="st5" d="M154.6,208.22c0.65,1.05,32.54,0.3,40.68-4.71c8.14-5.01,10.68-15.68,5.67-23.82
			c-5.01-8.15-15.68-10.68-23.82-5.67C168.98,179.03,154.06,207.34,154.6,208.22L154.6,208.22z"/>
		<path class="st4" d="M197.26,192.07c-0.77,0-1.4-0.63-1.4-1.4c0-0.77,0.63-1.4,1.4-1.4c0.78,0,1.4,0.63,1.4,1.4
			C198.67,191.44,198.04,192.07,197.26,192.07L197.26,192.07z"/>
		<path class="st4" d="M196.55,193.13c0.39,0.05,0.67,0.37,0.71,0.74c0.01,0.07,0.01,0.14,0,0.22c-0.65,4.55-7.73,8.09-12.52,8.63
			c-0.46,0.05-0.88-0.28-0.93-0.74c-0.05-0.46,0.28-0.88,0.74-0.93c4.1-0.46,10.54-3.69,11.04-7.2
			C195.67,193.38,196.09,193.07,196.55,193.13L196.55,193.13z"/>
	</g>
</g>
</svg>
