<?xml version="1.0" standalone="no"?><!DOCTYPE svg PUBLIC "-//W3C//DTD SVG 1.1//EN" "http://www.w3.org/Graphics/SVG/1.1/DTD/svg11.dtd"><svg t="1575020440357" class="icon" viewBox="0 0 1024 1024" version="1.1" xmlns="http://www.w3.org/2000/svg" p-id="13078" xmlns:xlink="http://www.w3.org/1999/xlink" width="200" height="200"><defs><style type="text/css"></style></defs><path d="M477.075222 666.745754a34.51065 34.51065 0 0 1-21.534645-7.454301l-154.883796-122.029657a34.51065 34.51065 0 0 1 42.51712-55.21704l129.207873 101.599353 215.62254-250.68536a34.234565 34.234565 0 1 1 52.180102 44.725802l-237.157185 276.085198a33.682394 33.682394 0 0 1-25.952009 12.976005z" p-id="13079"></path><path d="M879.883527 165.651119c-41.136695-5.797789-157.644648-29.817201-348.419521-132.79698a27.60852 27.60852 0 0 0-18.221623-5.245619 27.60852 27.60852 0 0 0-17.945537 4.417363C303.693718 134.453492 187.46185 158.472904 144.944729 165.651119a36.167161 36.167161 0 0 0-27.60852 34.234564V552.170396c0 152.399029 77.856026 239.089782 213.413858 337.376112l159.025075 101.875439a27.60852 27.60852 0 0 0 19.325963 7.730385h4.969534a27.60852 27.60852 0 0 0 17.669453-6.349959l161.233755-103.53195c135.005662-98.010245 213.137773-184.700998 213.137773-337.100027V198.505257A36.443246 36.443246 0 0 0 879.883527 165.651119z m-41.688865 386.519277c0 124.79051-62.395255 193.259639-184.977083 279.122136L511.309787 922.124562l-138.042599-91.660286C249.028849 743.221353 186.633594 675.856565 186.633594 552.170396V228.322459A1294.563494 1294.563494 0 0 0 511.309787 102.151523a1297.600431 1297.600431 0 0 0 325.780534 126.170936z" p-id="13080"></path></svg>